# xmcd
#
# Track frame offsets: 
#        150
#        10431
#        24750
#        49949
#        63609
#        90377
#        100030
#        114545
#        126693
#        140467
#        153262
#
# Disc length: 2374 seconds
#
# Revision: 0
# Processed by: cddbd v1.5.2PL0 Copyright (c) Steve Scherf et al.
# Submitted via: ExactAudioCopy v0.95b4
#
DISCID=8e09440b
DTITLE=Sugar Mama - The Devil's Music
DYEAR=2005
DGENRE=Bues/Rock
TTITLE0=Blake's Blues
TTITLE1=Bottle up and go
TTITLE2=One way out - talk to you by hand
TTITLE3=Humbugging me
TTITLE4=On the road again
TTITLE5=Hi heel Sneakers
TTITLE6=Crossroads
TTITLE7=Cant't catch me
TTITLE8=Corrina
TTITLE9=Wake up mama
TTITLE10=Fate of a fool - Man of constan sorrow
EXTD=
EXTT0=
EXTT1=
EXTT2=
EXTT3=
EXTT4=
EXTT5=
EXTT6=
EXTT7=
EXTT8=
EXTT9=
EXTT10=
PLAYORDER=
